<svg xmlns="http://www.w3.org/2000/svg" width="154" height="25" fill="none"><rect width="23.765" height="23.765" x=".383" y=".383" fill="#F5BE3D" rx="11.883"/><path fill="#1A1D23" d="M18.494 12.266a6.247 6.247 0 0 1-5.48 6.187.245.245 0 0 1-.27-.24v-4.51h1.438a.478.478 0 0 0 .48-.509.49.49 0 0 0-.498-.449h-1.42v-1.437a.958.958 0 0 1 .96-.958h.957a.479.479 0 0 0 .48-.51.491.491 0 0 0-.498-.449h-.94a1.916 1.916 0 0 0-1.916 1.917v1.437h-1.438a.48.48 0 0 0-.479.51.491.491 0 0 0 .497.448h1.42v4.51a.239.239 0 0 1-.264.24c-3.162-.383-5.606-3.133-5.48-6.42a6.229 6.229 0 0 1 12.451.233Z"/><rect width="23.765" height="23.765" x=".383" y=".383" stroke="#1A1D23" stroke-width=".767" rx="11.883"/><rect width="23.765" height="23.765" x=".383" y=".383" stroke="#F5BE3D" stroke-width=".767" rx="11.883"/><rect width="23.765" height="23.765" x="43.313" y=".383" fill="#F5BE3D" rx="11.883"/><g clip-path="url(#a)"><path fill="#1A1D23" d="m62.245 9.253-1.809 1.803c-.359 4.187-3.892 7.439-8.115 7.439-.868 0-1.587-.138-2.132-.408-.437-.221-.617-.455-.665-.527a.479.479 0 0 1 .234-.712c.012-.006 1.425-.545 2.342-1.581a6.504 6.504 0 0 1-1.48-1.462c-.82-1.114-1.689-3.048-1.168-5.935a.484.484 0 0 1 .815-.258c.018.024 2.012 1.989 4.45 2.624V9.87a2.893 2.893 0 0 1 2.91-2.874 2.887 2.887 0 0 1 2.456 1.437h1.82a.48.48 0 0 1 .444.293.503.503 0 0 1-.102.527Z"/></g><rect width="23.765" height="23.765" x="43.313" y=".383" stroke="#1A1D23" stroke-width=".767" rx="11.883"/><rect width="23.765" height="23.765" x="43.313" y=".383" stroke="#F5BE3D" stroke-width=".767" rx="11.883"/><rect width="23.765" height="23.765" x="86.244" y=".383" fill="#F5BE3D" rx="11.883"/><path fill="#1A1D23" d="M100.043 12.266a1.917 1.917 0 1 1-1.917-1.917 1.923 1.923 0 0 1 1.917 1.917Zm4.072-2.635v5.27a3.354 3.354 0 0 1-3.354 3.354h-5.27a3.354 3.354 0 0 1-3.354-3.354v-5.27a3.354 3.354 0 0 1 3.354-3.354h5.27a3.354 3.354 0 0 1 3.354 3.354Zm-3.114 2.635a2.875 2.875 0 1 0-5.75.001 2.875 2.875 0 0 0 5.75-.001Zm.958-3.114a.718.718 0 1 0-1.437-.001.718.718 0 0 0 1.437 0Z"/><rect width="23.765" height="23.765" x="86.244" y=".383" stroke="#1A1D23" stroke-width=".767" rx="11.883"/><rect width="23.765" height="23.765" x="86.244" y=".383" stroke="#F5BE3D" stroke-width=".767" rx="11.883"/><rect width="23.765" height="23.765" x="129.174" y=".383" fill="#F5BE3D" rx="11.883"/><path fill="#1A1D23" d="M146.087 6.277h-10.062a.956.956 0 0 0-.958.958v10.062a.957.957 0 0 0 .958.958h10.062a.96.96 0 0 0 .958-.958V7.235a.96.96 0 0 0-.958-.958Zm-6.947 8.864a.48.48 0 0 1-.959 0v-3.833a.48.48 0 0 1 .959 0v3.833Zm-.479-5.031a.719.719 0 1 1-.001-1.438.719.719 0 0 1 .001 1.438Zm5.749 5.03a.478.478 0 1 1-.958 0v-2.155a1.196 1.196 0 0 0-2.045-.847c-.225.224-.351.529-.351.847v2.156a.478.478 0 1 1-.958 0v-3.833a.483.483 0 0 1 .425-.478.478.478 0 0 1 .521.37 2.154 2.154 0 0 1 3.058.673c.201.336.308.72.308 1.112v2.156Z"/><rect width="23.765" height="23.765" x="129.174" y=".383" stroke="#1A1D23" stroke-width=".767" rx="11.883"/><rect width="23.765" height="23.765" x="129.174" y=".383" stroke="#F5BE3D" stroke-width=".767" rx="11.883"/><defs><clipPath id="a"><path fill="#fff" d="M47.53 4.6h15.332v15.332H47.53z"/></clipPath></defs></svg>